HIERARCHY
ROOT Hips
{
 OFFSET 0.000000 0.000000 0.000000
 CHANNELS 6 Xposition Yposition Zposition Yrotation Xrotation Zrotation
 JOINT Chest
 {
  OFFSET 0.000000 9.588913 -0.003946
  CHANNELS 3 Yrotation Xrotation Zrotation
  JOINT Chest2
  {
   OFFSET 0.000000 9.541882 0.008053
   CHANNELS 3 Yrotation Xrotation Zrotation
   JOINT Chest3
   {
    OFFSET 0.000000 9.501360 0.000000
    CHANNELS 3 Yrotation Xrotation Zrotation
    JOINT Chest4
    {
     OFFSET 0.000000 9.491660 0.000000
     CHANNELS 3 Yrotation Xrotation Zrotation
     JOINT Neck
     {
      OFFSET 0.000000 14.331917 0.000000
      CHANNELS 3 Yrotation Xrotation Zrotation
      JOINT Head
      {
       OFFSET 0.000000 8.884799 0.017034
       CHANNELS 3 Yrotation Xrotation Zrotation
       End Site
       {
        OFFSET 0.000000 16.896195 0.008993
       }
      }
     }
     JOINT RightCollar
     {
      OFFSET -2.923010 9.499495 0.000000
      CHANNELS 3 Yrotation Xrotation Zrotation
      JOINT RightShoulder
      {
       OFFSET -13.795216 0.000000 0.000000
       CHANNELS 3 Yrotation Xrotation Zrotation
       JOINT RightElbow
       {
        OFFSET -30.272209 0.000000 0.000000
        CHANNELS 3 Yrotation Xrotation Zrotation
        JOINT RightWrist
        {
         OFFSET -24.478199 0.000000 0.000000
         CHANNELS 3 Yrotation Xrotation Zrotation
         End Site
         {
          OFFSET -18.090752 0.000000 0.000000
         }
        }
       }
      }
     }
     JOINT LeftCollar
     {
      OFFSET 2.923010 9.499495 0.000000
      CHANNELS 3 Yrotation Xrotation Zrotation
      JOINT LeftShoulder
      {
       OFFSET 13.795216 0.000000 0.000000
       CHANNELS 3 Yrotation Xrotation Zrotation
       JOINT LeftElbow
       {
        OFFSET 30.272209 0.000000 0.000000
        CHANNELS 3 Yrotation Xrotation Zrotation
        JOINT LeftWrist
        {
         OFFSET 24.478199 0.000000 0.000000
         CHANNELS 3 Yrotation Xrotation Zrotation
         End Site
         {
          OFFSET 18.090752 0.000000 0.000000
         }
        }
       }
      }
     }
    }
   }
  }
 }
 JOINT RightHip
 {
  OFFSET -7.826875 0.019532 0.001973
  CHANNELS 3 Yrotation Xrotation Zrotation
  JOINT RightKnee
  {
   OFFSET 0.000000 -40.546152 -0.001885
   CHANNELS 3 Yrotation Xrotation Zrotation
   JOINT RightAnkle
   {
    OFFSET 0.000000 -39.417092 -0.003189
    CHANNELS 3 Yrotation Xrotation Zrotation
    JOINT RightToe
    {
     OFFSET 0.000000 -7.579396 17.243563
     CHANNELS 3 Yrotation Xrotation Zrotation
     End Site
     {
      OFFSET 0.000000 -1.500329 6.694466
     }
    }
   }
  }
 }
 JOINT LeftHip
 {
  OFFSET 7.826875 0.019532 0.001973
  CHANNELS 3 Yrotation Xrotation Zrotation
  JOINT LeftKnee
  {
   OFFSET 0.000000 -40.546152 -0.001885
   CHANNELS 3 Yrotation Xrotation Zrotation
   JOINT LeftAnkle
   {
    OFFSET 0.000000 -39.417092 -0.003189
    CHANNELS 3 Yrotation Xrotation Zrotation
    JOINT LeftToe
    {
     OFFSET 0.000000 -7.579396 17.243563
     CHANNELS 3 Yrotation Xrotation Zrotation
     End Site
     {
      OFFSET 0.000000 -1.500329 6.694466
     }
    }
   }
  }
 }
}
MOTION
Frames: 8
Frame Time: 0.008333
-1.082199 89.270148 -1.881417 -136.911811 -3.228526 1.266139 13.945053 12.995474 -1.867200 7.969943 7.390830 -1.550083 9.951714 9.266484 -1.777918 7.969949 7.390835 -1.550074 -2.996114 24.704432 7.764819 -7.171752 10.768739 14.613569 -1.876967 -4.986202 -4.531423 2.768734 -26.515555 49.659052 36.213728 10.784351 10.595645 4.485786 -12.386121 -6.301865 -19.448093 -2.297486 6.718314 5.055276 -40.473548 -74.762979 -34.430301 -12.439425 -42.692218 -10.657789 -7.539927 9.467703 -28.076480 -3.121846 2.304916 -1.910571 11.918866 -0.054329 8.611788 -3.419283 -3.030337 -0.044190 0.141692 -0.015396 -12.723651 -0.622234 1.673065 -19.047354 2.342544 -1.434402 -1.449677 0.307819 -3.290445 0.055602 -0.096566 0.048616
-1.170223 89.270745 -1.899327 -137.069657 -3.297058 1.256737 13.901830 12.917881 -1.800163 7.941834 7.349001 -1.508846 9.917291 9.213266 -1.727768 7.941841 7.349006 -1.508836 -2.870334 24.852017 7.716396 -6.920229 11.017757 14.487199 -2.003503 -4.983738 -4.453051 2.551717 -26.412587 50.266966 36.464683 10.720352 10.756134 4.276583 -12.321414 -6.604658 -19.428957 -2.324172 6.733981 5.085085 -40.315585 -74.533573 -34.320760 -12.487146 -42.746315 -10.623205 -7.567269 9.407651 -28.031975 -3.051680 2.214222 -1.878102 11.966335 -0.026622 8.704894 -3.464618 -3.008761 -0.047565 0.148128 -0.012352 -12.663489 -0.491084 1.620758 -19.040333 2.359431 -1.417958 -1.356901 0.229299 -3.249707 0.057013 -0.090295 0.052117
-1.261485 89.270976 -1.916286 -137.229612 -3.369134 1.247834 13.856794 12.838042 -1.729340 7.912759 7.305923 -1.464991 9.881703 9.158435 -1.674383 7.912768 7.305928 -1.464980 -2.747017 25.008002 7.658484 -6.670449 11.281981 14.344391 -2.129910 -4.960505 -4.359196 2.354795 -26.291306 50.848288 36.724657 10.674051 10.911916 4.091055 -12.267786 -6.931913 -19.406658 -2.347591 6.741759 5.130927 -40.146995 -74.316932 -34.203565 -12.544519 -42.810966 -10.599456 -7.595436 9.346871 -27.988187 -2.977979 2.122120 -1.841519 12.012013 -0.000430 8.787408 -3.511373 -2.985552 -0.051443 0.154469 -0.009779 -12.604670 -0.353573 1.565356 -19.029726 2.373073 -1.399321 -1.266717 0.150358 -3.209687 0.058150 -0.083914 0.056019
-1.355300 89.270851 -1.931723 -137.392033 -3.440375 1.237490 13.811965 12.753065 -1.653683 7.883810 7.260053 -1.417968 9.846324 9.100056 -1.617084 7.883820 7.260060 -1.417956 -2.627850 25.172447 7.592327 -6.425758 11.561952 14.187817 -2.266142 -4.915610 -4.264410 2.172731 -26.159678 51.424092 36.989788 10.658673 11.063307 3.922697 -12.236448 -7.275605 -19.384234 -2.360863 6.738614 5.188650 -39.978365 -74.114064 -34.078578 -12.603745 -42.878641 -10.587049 -7.621343 9.293268 -27.940538 -2.906217 2.029570 -1.803232 12.058444 0.023602 8.874786 -3.558451 -2.960366 -0.055098 0.160418 -0.006157 -12.541923 -0.213360 1.509252 -19.016863 2.382534 -1.379662 -1.175495 0.071412 -3.168770 0.060022 -0.076368 0.060462
-1.451614 89.270394 -1.945119 -137.554537 -3.509005 1.226403 13.765962 12.663369 -1.574942 7.854240 7.211504 -1.368577 9.810201 9.038282 -1.556884 7.854251 7.211510 -1.368563 -2.512821 25.341756 7.519635 -6.186958 11.851251 14.020825 -2.414327 -4.858598 -4.180037 2.004196 -26.024094 51.998750 37.249491 10.665370 11.222608 3.767056 -12.225001 -7.627428 -19.353453 -2.364003 6.720525 5.233379 -39.816480 -73.906764 -33.950814 -12.661063 -42.938604 -10.587064 -7.643969 9.251911 -27.890403 -2.838540 1.935808 -1.763251 12.105618 0.046887 8.966883 -3.606270 -2.934498 -0.058648 0.166367 -0.000991 -12.474204 -0.073971 1.451215 -19.004656 2.389890 -1.357520 -1.086604 -0.007829 -3.125472 0.062245 -0.067889 0.063277
-1.550585 89.269624 -1.956343 -137.717910 -3.575392 1.215528 13.717145 12.571898 -1.495531 7.823008 7.161768 -1.318375 9.771999 8.975013 -1.495723 7.823018 7.161775 -1.318361 -2.399867 25.510182 7.441155 -5.951181 12.139090 13.844675 -2.573173 -4.805664 -4.116247 1.853558 -25.877173 52.582840 37.493597 10.668175 11.389362 3.618298 -12.216399 -7.972206 -19.308835 -2.363631 6.690681 5.252094 -39.661435 -73.679916 -33.824188 -12.719024 -42.983714 -10.598296 -7.664989 9.215596 -27.837261 -2.774774 1.841232 -1.723688 12.153337 0.070446 9.055414 -3.655035 -2.910016 -0.062384 0.171933 0.005477 -12.399137 0.063332 1.390391 -18.997637 2.397555 -1.331881 -1.004012 -0.088903 -3.079520 0.063304 -0.058889 0.063190
-1.651742 89.268531 -1.965382 -137.886910 -3.637424 1.203826 13.665721 12.479619 -1.416600 7.790164 7.111454 -1.268704 9.731757 8.911038 -1.435266 7.790174 7.111462 -1.268690 -2.288256 25.674054 7.356047 -5.717335 12.418527 13.657913 -2.738713 -4.767221 -4.084750 1.740269 -25.700111 53.197720 37.714595 10.634802 11.527548 3.467168 -12.196959 -8.304785 -19.259540 -2.365681 6.655665 5.252439 -39.509080 -73.433476 -33.700572 -12.782002 -43.009403 -10.615184 -7.680832 9.180406 -27.772426 -2.716246 1.748739 -1.692053 12.200814 0.095229 9.137365 -3.702903 -2.888162 -0.066509 0.176307 0.012410 -12.312086 0.194865 1.327847 -18.999950 2.410525 -1.304085 -0.920276 -0.175289 -3.029708 0.063839 -0.049251 0.060738
-1.754618 89.267152 -1.972680 -138.057933 -3.694872 1.189024 13.610631 12.386327 -1.338332 7.755067 7.060513 -1.220106 9.688660 8.846304 -1.376201 7.755076 7.060521 -1.220091 -2.178682 25.833102 7.262362 -5.486273 12.688990 13.457194 -2.906083 -4.742300 -4.081535 1.683315 -25.483040 53.849216 37.909642 10.540919 11.606921 3.304562 -12.159713 -8.628427 -19.215389 -2.375307 6.615703 5.248138 -39.352497 -73.172414 -33.583457 -12.844322 -43.018333 -10.632547 -7.690919 9.147687 -27.699030 -2.662237 1.659510 -1.669294 12.248427 0.120406 9.219630 -3.749014 -2.868562 -0.070666 0.178956 0.020123 -12.220204 0.318061 1.266222 -19.009301 2.433634 -1.277167 -0.830904 -0.269568 -2.975102 0.065117 -0.039049 0.056949
